<?xml version="1.0" encoding="UTF-8"?>
<svg width="32px" height="32px" viewBox="0 0 32 32" version="1.1" xmlns="http://www.w3.org/2000/svg" xmlns:xlink="http://www.w3.org/1999/xlink">
    <!-- Generator: Sketch 53.2 (72643) - https://sketchapp.com -->
    <title>assets/icons/close</title>
    <desc>Created with Sketch.</desc>
    <defs>
        <path d="M18.82775,15.99975 L26.41375,8.41375 C27.19475,7.63275 27.19475,6.36675 26.41375,5.58575 C25.63275,4.80475 24.36675,4.80475 23.58575,5.58575 L15.99975,13.17175 L8.41375,5.58575 C7.63275,4.80475 6.36675,4.80475 5.58575,5.58575 C4.80475,6.36675 4.80475,7.63275 5.58575,8.41375 L13.17175,15.99975 L5.58575,23.58575 C4.80475,24.36675 4.80475,25.63275 5.58575,26.41375 C5.97575,26.80475 6.48775,26.99975 6.99975,26.99975 C7.51175,26.99975 8.02275,26.80475 8.41375,26.41375 L15.99975,18.82775 L23.58575,26.41375 C23.97575,26.80475 24.48775,26.99975 24.99975,26.99975 C25.51175,26.99975 26.02275,26.80475 26.41375,26.41375 C27.19475,25.63275 27.19475,24.36675 26.41375,23.58575 L18.82775,15.99975 Z" id="path-1"></path>
    </defs>
    <g id="assets/icons/close" stroke="none" stroke-width="1" fill="none" fill-rule="evenodd">
        <mask id="mask-2" fill="white">
            <use xlink:href="#path-1"></use>
        </mask>
        <use id="Fill-20" fill="#282828" xlink:href="#path-1"></use>
    </g>
</svg>